<?xml version="1.0" encoding="UTF-8"?>
<svg width="24px" height="24px" viewBox="0 0 24 24" version="1.1" xmlns="http://www.w3.org/2000/svg" xmlns:xlink="http://www.w3.org/1999/xlink">
    <g stroke="none" stroke-width="1" fill="none" fill-rule="evenodd">
        <path d="M12,2 C17.5228475,2 22,6.4771525 22,12 C22,17.5228475 17.5228475,22 12,22 C6.4771525,22 2,17.5228475 2,12 C2,6.4771525 6.4771525,2 12,2 Z M12,4 C7.581722,4 4,7.581722 4,12 C4,16.418278 7.581722,20 12,20 C16.418278,20 20,16.418278 20,12 C20,7.581722 16.418278,4 12,4 Z M13,6 L13,12.4142136 L16.2928932,15.7071068 C16.6834175,16.0976311 16.6834175,16.7307961 16.2928932,17.1213203 C15.9023689,17.5118446 15.2692039,17.5118446 14.8786797,17.1213203 L11.2928932,13.5355339 C11.1053568,13.3479975 11,13.0936431 11,12.8284271 L11,6 C11,5.44771525 11.4477153,5 12,5 C12.5522847,5 13,5.44771525 13,6 Z" fill="#007BFF"></path>
    </g>
</svg>
